<svg version="1.1" id="Layer_1" xmlns="http://www.w3.org/2000/svg" xmlns:xlink="http://www.w3.org/1999/xlink" x="0px" y="0px"
	 width="100%" viewBox="0 0 474 527" enable-background="new 0 0 474 527" xml:space="preserve">
<path fill="#000000" opacity="1.000000" stroke="none" 
	d="
M238.000000,528.000000 
	C158.666687,528.000000 79.833374,528.000000 1.000042,528.000000 
	C1.000028,352.333405 1.000028,176.666794 1.000014,1.000137 
	C158.999893,1.000091 316.999786,1.000091 474.999756,1.000046 
	C474.999847,176.666519 474.999847,352.333038 474.999939,527.999756 
	C396.166656,528.000000 317.333344,528.000000 238.000000,528.000000 
M185.995453,450.013580 
	C185.995453,450.013580 186.032379,450.017761 186.512131,449.985352 
	C186.512131,449.985352 186.992722,450.001709 187.539261,450.221954 
	C187.708069,450.121521 187.876862,450.021118 188.099915,450.693115 
	C188.815048,449.602753 189.530182,448.512421 190.245316,447.422089 
	C189.998444,447.253510 189.751587,447.084930 189.504715,446.916351 
	C188.993301,447.959259 188.481873,449.002197 188.040421,449.280518 
	C187.686600,448.469788 187.332779,447.659058 186.696991,446.485657 
	C186.465790,446.260651 186.188934,446.143463 185.922791,446.141388 
	C185.922791,446.141388 185.874298,446.168030 185.847244,445.735931 
	C185.612808,445.908295 185.378372,446.080688 185.054565,447.000641 
	C185.035797,448.004486 185.017044,449.008301 185.104675,450.458435 
	C185.410217,450.319763 185.715744,450.181091 185.995453,450.013580 
M63.559261,275.237244 
	C65.685631,287.218475 67.347260,299.305725 70.050003,311.155518 
	C73.865974,327.886047 80.944008,343.489563 90.389183,357.691406 
	C102.041855,375.212433 116.246033,390.509125 133.452499,403.013458 
	C162.754608,424.308105 195.407272,435.768219 231.482468,436.762543 
	C242.963730,437.078918 254.576675,435.501129 266.013184,433.939270 
	C287.841309,430.958191 307.762665,422.444733 326.537567,411.222137 
	C341.064453,402.538727 354.176361,391.842010 365.173096,379.082855 
	C377.435425,364.855286 387.814392,349.227661 395.132904,331.681366 
	C402.945892,312.949646 408.028809,293.559570 408.756378,273.347504 
	C409.195282,261.155914 408.421417,248.784912 406.785858,236.684647 
	C403.994446,216.032593 396.732117,196.676163 386.129425,178.755844 
	C376.671204,162.769775 365.890411,147.715469 351.263977,135.866898 
	C345.034576,130.820633 338.951965,125.569275 332.487152,120.842674 
	C320.544312,112.110992 307.479462,105.271782 293.263123,101.243103 
	C280.282257,97.564545 267.091492,93.232170 253.793350,92.406395 
	C235.523544,91.271896 216.767639,89.667313 198.791946,95.068207 
	C184.201263,99.452057 169.616287,104.249527 155.725983,110.430397 
	C146.549362,114.513763 138.102646,120.750717 130.241837,127.145432 
	C120.812904,134.815796 111.448036,142.926941 103.724640,152.232620 
	C95.582901,162.042313 87.593567,172.302063 82.751205,184.462402 
	C78.647629,194.767441 73.330437,204.687546 70.238037,215.271118 
	C66.653915,227.537567 63.012383,239.974915 63.784321,253.165894 
	C64.198090,260.236481 63.432308,267.376099 63.559261,275.237244 
z"/>
<path fill="#3538A6" opacity="1.000000" stroke="none" 
	d="
M63.379036,274.860901 
	C63.432308,267.376099 64.198090,260.236481 63.784321,253.165894 
	C63.012383,239.974915 66.653915,227.537567 70.238037,215.271118 
	C73.330437,204.687546 78.647629,194.767441 82.751205,184.462402 
	C87.593567,172.302063 95.582901,162.042313 103.724640,152.232620 
	C111.448036,142.926941 120.812904,134.815796 130.241837,127.145432 
	C138.102646,120.750717 146.549362,114.513763 155.725983,110.430397 
	C169.616287,104.249527 184.201263,99.452057 198.791946,95.068207 
	C216.767639,89.667313 235.523544,91.271896 253.793350,92.406395 
	C267.091492,93.232170 280.282257,97.564545 293.263123,101.243103 
	C307.479462,105.271782 320.544312,112.110992 332.487152,120.842674 
	C338.951965,125.569275 345.034576,130.820633 351.263977,135.866898 
	C365.890411,147.715469 376.671204,162.769775 386.129425,178.755844 
	C396.732117,196.676163 403.994446,216.032593 406.785858,236.684647 
	C408.421417,248.784912 409.195282,261.155914 408.756378,273.347504 
	C408.028809,293.559570 402.945892,312.949646 395.132904,331.681366 
	C387.814392,349.227661 377.435425,364.855286 365.173096,379.082855 
	C354.176361,391.842010 341.064453,402.538727 326.537567,411.222137 
	C307.762665,422.444733 287.841309,430.958191 266.013184,433.939270 
	C254.576675,435.501129 242.963730,437.078918 231.482468,436.762543 
	C195.407272,435.768219 162.754608,424.308105 133.452499,403.013458 
	C116.246033,390.509125 102.041855,375.212433 90.389183,357.691406 
	C80.944008,343.489563 73.865974,327.886047 70.050003,311.155518 
	C67.347260,299.305725 65.685631,287.218475 63.379036,274.860901 
M360.766418,361.697296 
	C363.387970,358.259216 366.262756,354.983826 368.592163,351.358063 
	C393.737213,312.219330 401.293457,269.778564 390.376160,224.667114 
	C381.892822,189.613007 362.967194,160.667999 334.530792,138.241470 
	C296.278320,108.073448 252.661102,98.168777 205.263870,106.571465 
	C172.307541,112.414040 143.963745,128.165833 120.709663,152.634567 
	C85.127602,190.075226 70.810860,234.775055 77.533241,285.522247 
	C82.768921,325.046295 101.210556,358.211700 131.772110,384.355042 
	C160.898193,409.270508 194.753143,421.877136 232.827026,422.756744 
	C262.056396,423.432007 289.595154,416.326508 314.921204,401.517517 
	C330.965454,392.135895 345.627594,381.000854 357.566681,365.709808 
	C358.463593,364.513184 359.360474,363.316589 360.766418,361.697296 
z"/>
<path fill="#C7C7C7" opacity="1.000000" stroke="none" 
	d="
M187.970459,450.045105 
	C188.481873,449.002197 188.993301,447.959259 189.504715,446.916351 
	C189.751587,447.084930 189.998444,447.253510 190.245316,447.422089 
	C189.530182,448.512421 188.815048,449.602753 188.040558,450.329803 
	C187.981216,449.966492 187.970459,450.045105 187.970459,450.045105 
z"/>
<path fill="#26202A" opacity="1.000000" stroke="none" 
	d="
M186.992722,450.001709 
	C186.992722,450.001709 186.512131,449.985352 186.259583,449.611786 
	C185.960159,448.203491 185.913300,447.168762 185.866440,446.134033 
	C186.188934,446.143463 186.465790,446.260651 186.849304,447.062378 
	C186.998657,448.426666 186.995697,449.214172 186.992722,450.001709 
z"/>
<path fill="#C7C7C7" opacity="1.000000" stroke="none" 
	d="
M185.894623,446.137695 
	C185.913300,447.168762 185.960159,448.203491 186.019699,449.627991 
	C186.032379,450.017761 185.995453,450.013580 185.749573,450.124023 
	C185.335220,450.160339 185.166763,450.086243 184.998291,450.012146 
	C185.017044,449.008301 185.035797,448.004486 185.281464,446.602417 
	C185.508347,446.204193 185.874298,446.168030 185.874298,446.168030 
	C185.874298,446.168030 185.922791,446.141388 185.894623,446.137695 
z"/>
<path fill="#939393" opacity="1.000000" stroke="none" 
	d="
M187.265991,450.111816 
	C186.995697,449.214172 186.998657,448.426666 186.990295,447.243713 
	C187.332779,447.659058 187.686600,448.469788 188.005432,449.662811 
	C187.970459,450.045105 187.981216,449.966492 188.013443,449.943604 
	C187.876862,450.021118 187.708069,450.121521 187.265991,450.111816 
z"/>
<path fill="#26202A" opacity="1.000000" stroke="none" 
	d="
M185.860779,445.951965 
	C185.874298,446.168030 185.508347,446.204193 185.326141,446.228638 
	C185.378372,446.080688 185.612808,445.908295 185.860779,445.951965 
z"/>
<path fill="#26202A" opacity="1.000000" stroke="none" 
	d="
M185.051483,450.235291 
	C185.166763,450.086243 185.335220,450.160339 185.762482,450.138428 
	C185.715744,450.181091 185.410217,450.319763 185.051483,450.235291 
z"/>
<path fill="#07194E" opacity="1.000000" stroke="none" 
	d="
M357.021759,366.045380 
	C345.627594,381.000854 330.965454,392.135895 314.921204,401.517517 
	C289.595154,416.326508 262.056396,423.432007 232.827026,422.756744 
	C194.753143,421.877136 160.898193,409.270508 131.772110,384.355042 
	C101.210556,358.211700 82.768921,325.046295 77.533241,285.522247 
	C70.810860,234.775055 85.127602,190.075226 120.709663,152.634567 
	C143.963745,128.165833 172.307541,112.414040 205.263870,106.571465 
	C252.661102,98.168777 296.278320,108.073448 334.530792,138.241470 
	C362.967194,160.667999 381.892822,189.613007 390.376160,224.667114 
	C401.293457,269.778564 393.737213,312.219330 368.592163,351.358063 
	C366.262756,354.983826 363.387970,358.259216 360.128540,361.863861 
	C358.621613,361.593506 357.752563,361.156586 356.999115,360.462402 
	C357.689484,359.456451 358.264282,358.707794 359.077759,357.822388 
	C359.527283,357.389679 359.738129,357.093719 360.010742,356.506714 
	C360.686829,355.467224 361.301147,354.718719 362.253326,353.890747 
	C363.045319,352.838470 363.499481,351.865601 364.040222,350.559967 
	C369.312103,340.379456 375.280182,330.855896 379.520569,320.616791 
	C388.491669,298.954651 392.705841,276.218842 389.955688,252.769180 
	C388.433044,239.786392 386.628021,226.566208 382.639465,214.198242 
	C373.730560,186.572754 357.723724,163.317581 335.329498,144.568802 
	C308.189850,121.847054 276.817596,109.810165 241.666321,108.190140 
	C213.858780,106.908569 187.593399,113.226364 162.858978,126.344406 
	C133.009399,142.175308 110.977539,165.335800 95.976280,195.406067 
	C85.147881,217.111740 80.138069,240.268799 80.257072,264.375214 
	C80.333527,279.862335 82.824303,295.104553 87.563637,310.024597 
	C95.398621,334.690186 108.456604,356.147522 126.896797,374.029755 
	C150.961807,397.366577 179.679977,411.959656 213.127151,416.604980 
	C249.552902,421.663971 283.565491,414.851715 315.359253,396.259186 
	C330.081787,387.649658 342.109222,376.052551 354.112823,363.931976 
	C355.324493,364.660645 356.173126,365.353027 357.021759,366.045380 
z"/>
<path fill="#081955" opacity="1.000000" stroke="none" 
	d="
M357.294220,365.877594 
	C356.173126,365.353027 355.324493,364.660645 354.306122,363.676880 
	C355.052094,362.496887 355.967804,361.608307 356.883514,360.719666 
	C357.752563,361.156586 358.621613,361.593506 359.874023,362.075195 
	C359.360474,363.316589 358.463593,364.513184 357.294220,365.877594 
z"/>
<path fill="#3538A8" opacity="1.000000" stroke="none" 
	d="
M356.999115,360.462402 
	C355.967804,361.608307 355.052094,362.496887 353.943085,363.640564 
	C342.109222,376.052551 330.081787,387.649658 315.359253,396.259186 
	C283.565491,414.851715 249.552902,421.663971 213.127151,416.604980 
	C179.679977,411.959656 150.961807,397.366577 126.896797,374.029755 
	C108.456604,356.147522 95.398621,334.690186 87.563637,310.024597 
	C82.824303,295.104553 80.333527,279.862335 80.257072,264.375214 
	C80.138069,240.268799 85.147881,217.111740 95.976280,195.406067 
	C110.977539,165.335800 133.009399,142.175308 162.858978,126.344406 
	C187.593399,113.226364 213.858780,106.908569 241.666321,108.190140 
	C276.817596,109.810165 308.189850,121.847054 335.329498,144.568802 
	C357.723724,163.317581 373.730560,186.572754 382.639465,214.198242 
	C386.628021,226.566208 388.433044,239.786392 389.955688,252.769180 
	C392.705841,276.218842 388.491669,298.954651 379.520569,320.616791 
	C375.280182,330.855896 369.312103,340.379456 363.783020,350.744812 
	C362.931305,352.164978 362.423370,353.067596 361.915466,353.970215 
	C361.301147,354.718719 360.686829,355.467224 359.785583,356.660034 
	C359.278809,357.389252 359.058929,357.674194 358.839050,357.959137 
	C358.264282,358.707794 357.689484,359.456451 356.999115,360.462402 
M153.009689,317.000977 
	C153.009689,317.000977 152.985199,316.957458 152.509750,317.337280 
	C152.270676,317.887543 152.031616,318.437775 151.488876,319.414764 
	C151.385178,319.922943 151.281494,320.431122 150.831512,321.600891 
	C151.199341,323.842438 151.567169,326.083984 151.983994,328.801575 
	C152.212036,329.213928 152.440079,329.626251 152.977249,330.524078 
	C153.305283,330.699768 153.633316,330.875458 153.902100,331.052490 
	C153.902100,331.052490 153.906723,331.111572 153.960144,331.803741 
	C157.100449,338.806763 169.098755,340.153625 174.729691,334.887939 
	C176.189468,332.882202 177.649231,330.876465 179.388565,328.263580 
	C183.767334,318.586151 188.451324,309.031219 192.404266,299.182892 
	C194.588211,293.741821 197.779663,290.628754 203.566238,289.493713 
	C206.805466,288.858337 209.794601,286.948029 212.896423,285.612152 
	C212.762741,285.227325 212.629044,284.842499 212.495346,284.457642 
	C208.183823,284.993988 203.872314,285.530304 199.095871,286.124451 
	C199.437500,283.652130 199.701035,281.745056 200.653076,279.809448 
	C203.273407,275.095123 205.969574,270.420929 208.492340,265.654938 
	C210.929916,261.049896 213.188797,256.350281 215.714310,251.317276 
	C221.238342,255.338211 225.998032,258.802795 231.036087,262.852722 
	C232.901642,264.344635 234.767197,265.836548 236.947739,267.889984 
	C238.265488,268.964081 239.583252,270.038147 241.263062,271.626984 
	C242.559296,272.677704 243.855515,273.728424 245.594162,275.131927 
	C246.236298,275.477234 246.878433,275.822510 247.809021,276.804352 
	C251.886108,280.195984 255.963196,283.587616 260.440704,287.504761 
	C266.630157,292.636993 272.819580,297.769196 279.056000,303.718292 
	C281.139313,313.778839 283.112610,323.864441 285.390289,333.880768 
	C285.901855,336.130493 287.477417,338.138275 288.791809,340.930542 
	C293.065247,346.840424 299.388184,348.088043 306.913849,348.698853 
	C319.744598,349.634491 328.071808,339.395813 324.195221,327.136353 
	C322.196045,320.814117 319.868896,314.563446 317.190857,308.500885 
	C315.756714,305.254272 316.242462,303.251068 319.436615,301.834595 
	C334.184082,294.863068 339.943085,274.220306 333.757263,260.885010 
	C330.588867,246.997620 317.310333,237.693344 303.442657,239.660461 
	C300.812378,240.033569 298.163361,240.346252 295.574219,240.918564 
	C292.688812,241.556335 291.385071,240.395660 290.490387,237.707840 
	C288.811890,232.665192 286.806213,227.730804 284.912628,222.760513 
	C275.860260,199.000076 266.799866,175.242691 257.554504,150.930878 
	C252.133469,145.312744 249.140076,145.720459 245.408340,152.402527 
	C235.919159,169.393936 226.398239,186.367783 216.825424,203.312164 
	C213.397949,209.378937 209.785172,215.341034 205.627243,220.963470 
	C202.858353,219.452591 200.168732,217.768143 197.306839,216.460846 
	C184.899216,210.793198 171.960861,211.296753 161.886246,219.674072 
	C150.648239,229.018753 140.966019,240.507736 131.848450,252.044800 
	C124.220680,261.696716 125.150330,270.725677 132.942474,280.296631 
	C136.029907,284.088898 139.881744,287.608490 144.081482,290.059937 
	C149.770035,293.380432 156.128021,295.554047 162.105545,298.938354 
	C159.374237,304.490417 156.642929,310.042511 153.475662,315.980438 
	C153.303711,316.321655 153.131775,316.662842 153.009689,317.000977 
M362.542542,189.965454 
	C361.991577,190.596909 361.440613,191.228363 360.889648,191.859818 
	C362.229126,192.676575 363.502777,193.678741 364.949829,194.192642 
	C365.362762,194.339294 366.278931,193.069031 366.964325,192.448517 
	C366.661041,192.318985 366.357758,192.189438 365.876007,191.418854 
	C364.982819,190.930511 364.089630,190.442184 362.542542,189.965454 
M89.609177,254.459702 
	C89.625481,253.974716 89.641792,253.489716 89.750565,252.544266 
	C89.628746,252.156158 89.380379,252.041046 88.315384,252.654373 
	C88.291214,260.087463 88.267036,267.520569 88.122658,275.804169 
	C88.738052,280.438202 89.353447,285.072205 89.968842,289.706238 
	C90.471832,289.628998 90.974831,289.551788 91.477821,289.474548 
	C90.880180,284.627930 90.282539,279.781311 89.730804,274.114471 
	C89.583031,273.031555 89.435257,271.948669 89.469917,270.477661 
	C89.497429,270.172791 89.407608,269.907623 89.276527,268.812286 
	C89.242668,265.304474 89.208809,261.796661 89.440033,257.694977 
	C89.427269,256.850281 89.414505,256.005585 89.609177,254.459702 
M276.774658,405.798950 
	C282.311188,403.934509 287.847717,402.070068 294.083984,400.094147 
	C307.729401,394.172546 320.397430,386.725800 330.915863,377.478943 
	C318.419861,384.486694 305.248413,391.873230 291.369537,399.430206 
	C286.231476,401.617004 281.093384,403.803802 276.039703,406.100769 
	C276.039703,406.100769 275.812195,406.084625 275.812195,406.084625 
	C275.812195,406.084625 275.992310,405.967224 276.774658,405.798950 
M247.904984,411.554291 
	C254.236572,410.681091 260.568176,409.807922 266.899750,408.934753 
	C266.766266,408.189117 266.632751,407.443451 266.499268,406.697815 
	C260.031250,408.289551 253.563217,409.881256 246.276871,411.167328 
	C237.637817,410.566498 228.998764,409.965698 220.359711,409.364868 
	C220.337250,409.826874 220.314789,410.288849 220.292343,410.750854 
	C229.125061,412.817261 238.091293,412.363159 247.904984,411.554291 
M114.819489,349.069031 
	C118.374924,353.659943 121.930351,358.250854 125.485786,362.841736 
	C125.891068,362.497803 126.296349,362.153839 126.701637,361.809906 
	C122.969070,357.058502 119.236504,352.307129 115.188499,346.941071 
	C108.868546,335.352234 102.548592,323.763367 96.228638,312.174530 
	C100.473404,325.179840 106.308800,337.412781 114.819489,349.069031 
M378.614105,301.562531 
	C377.996216,302.669708 377.157684,303.709106 376.793762,304.894257 
	C371.886871,320.874817 364.803864,335.775787 354.998291,349.352814 
	C354.394165,350.189270 354.019989,351.191833 353.538849,352.117126 
	C353.971924,352.381226 354.404968,352.645355 354.838013,352.909454 
	C358.861816,346.414185 363.639771,340.256531 366.733612,333.345001 
	C371.436707,322.838440 374.971771,311.809021 378.954163,300.866699 
	C378.954163,300.866699 379.184540,300.914612 379.184540,300.914612 
	C379.184540,300.914612 378.999695,300.975891 378.614105,301.562531 
M256.452271,370.003662 
	C276.223724,368.930298 296.109161,368.969147 315.785034,363.786133 
	C312.934570,361.545807 309.959412,359.510101 306.815979,359.204315 
	C295.931000,358.145508 284.981171,357.020874 274.067444,357.124756 
	C238.007584,357.467957 201.951614,358.287354 165.897980,359.095276 
	C162.831924,359.164001 159.739410,360.341736 156.774506,361.345093 
	C155.789749,361.678345 155.166702,363.080536 154.378296,363.994019 
	C155.414810,364.648712 156.411850,365.798004 157.493729,365.884369 
	C175.663040,367.334503 193.824799,369.059113 212.026230,369.869751 
	C226.479279,370.513428 240.983749,370.002563 256.452271,370.003662 
M161.541946,391.943970 
	C168.020340,395.172058 174.498749,398.400146 180.977142,401.628265 
	C180.975021,401.523224 180.972900,401.418213 180.970779,401.313202 
	C166.095703,391.996674 151.220612,382.680145 136.345520,373.363617 
	C136.176285,373.581177 136.007034,373.798767 135.837784,374.016327 
	C144.200516,379.859375 152.563248,385.702423 161.541946,391.943970 
M382.841217,264.454681 
	C382.618591,269.177490 382.395966,273.900299 382.173340,278.623108 
	C382.661743,278.616486 383.150146,278.609863 383.638550,278.603241 
	C383.638550,270.985779 383.638550,263.368347 383.638550,255.750885 
	C383.373535,255.752258 383.108551,255.753632 382.843536,255.755005 
	C382.843536,258.368652 382.843536,260.982300 382.841217,264.454681 
M112.272301,180.994705 
	C110.428497,182.259338 108.584686,183.523972 105.820061,185.420166 
	C109.543701,186.452072 111.439812,186.977524 112.868568,187.373474 
	C113.855072,185.343048 114.629333,183.749481 115.439079,182.082870 
	C114.799423,181.861160 113.893028,181.546982 112.272301,180.994705 
M343.898865,365.454529 
	C344.248230,364.823364 344.597595,364.192200 344.946991,363.561066 
	C344.817383,363.486359 344.687775,363.411652 344.558197,363.336945 
	C340.485565,367.604523 336.412933,371.872070 332.340332,376.139648 
	C332.400024,376.213409 332.459717,376.287201 332.519409,376.360962 
	C336.153412,372.891571 339.787445,369.422180 343.898865,365.454529 
M352.192261,355.225037 
	C352.192261,355.225037 352.239990,355.093781 352.239990,355.093781 
	C352.239990,355.093781 352.130280,355.267609 352.192261,355.225037 
M268.485474,406.560455 
	C268.485474,406.560455 268.533112,406.524017 268.485474,406.560455 
z"/>
<path fill="#081955" opacity="1.000000" stroke="none" 
	d="
M362.253296,353.890747 
	C362.423370,353.067596 362.931305,352.164978 363.696411,351.077576 
	C363.499481,351.865601 363.045319,352.838470 362.253296,353.890747 
z"/>
<path fill="#081955" opacity="1.000000" stroke="none" 
	d="
M359.077759,357.822388 
	C359.058929,357.674194 359.278809,357.389252 359.723816,356.951019 
	C359.738129,357.093719 359.527283,357.389679 359.077759,357.822388 
z"/>
<path fill="#F59A51" opacity="1.000000" stroke="none" 
	d="
M199.964554,279.837982 
	C199.701035,281.745056 199.437500,283.652130 199.095871,286.124451 
	C203.872314,285.530304 208.183823,284.993988 212.495346,284.457642 
	C212.629044,284.842499 212.762741,285.227325 212.896423,285.612152 
	C209.794601,286.948029 206.805466,288.858337 203.566238,289.493713 
	C197.779663,290.628754 194.588211,293.741821 192.404266,299.182892 
	C188.451324,309.031219 183.767334,318.586151 179.069214,328.289795 
	C178.303513,327.586334 177.857147,326.856689 176.648758,324.881317 
	C175.441727,328.221680 174.632233,330.461884 173.442688,332.734375 
	C167.889435,335.556885 162.895538,335.241547 158.045090,331.946777 
	C158.013901,331.992096 158.097717,331.920746 157.998657,331.646606 
	C157.417496,331.069031 156.935379,330.765564 156.444824,330.453918 
	C156.436386,330.445770 156.460327,330.425293 156.289291,330.098755 
	C152.510117,326.268707 153.072647,322.417908 155.234665,318.482208 
	C158.837540,311.923584 162.482407,305.388000 166.454910,298.219604 
	C164.423172,298.219604 163.311005,298.219604 162.198837,298.219604 
	C156.128021,295.554047 149.770035,293.380432 144.081482,290.059937 
	C139.881744,287.608490 136.029907,284.088898 132.942474,280.296631 
	C125.150330,270.725677 124.220680,261.696716 131.848450,252.044800 
	C140.966019,240.507736 150.648239,229.018753 161.886246,219.674072 
	C171.960861,211.296753 184.899216,210.793198 197.306839,216.460846 
	C200.168732,217.768143 202.858353,219.452591 205.829453,221.421967 
	C205.451447,225.098282 207.246826,224.416840 208.731247,223.329971 
	C209.592514,222.699402 209.981689,221.409698 210.552841,220.399384 
	C222.886047,198.583160 235.221832,176.768387 247.540390,154.943893 
	C251.180252,148.495224 251.156128,148.483566 257.256134,151.553619 
	C257.376160,151.614029 257.578430,151.510986 257.742340,151.484222 
	C266.799866,175.242691 275.860260,199.000076 284.912628,222.760513 
	C286.806213,227.730804 288.811890,232.665192 290.490387,237.707840 
	C291.385071,240.395660 292.688812,241.556335 295.574219,240.918564 
	C298.163361,240.346252 300.812378,240.033569 303.442657,239.660461 
	C317.310333,237.693344 330.588867,246.997620 333.422668,261.098114 
	C328.212280,261.681793 327.194427,263.152893 328.703979,268.006744 
	C331.712952,277.681763 330.773407,286.599335 324.063568,294.593658 
	C322.240997,296.765198 320.744415,299.210327 319.098236,301.529907 
	C316.242462,303.251068 315.756714,305.254272 317.190857,308.500885 
	C319.868896,314.563446 322.196045,320.814117 324.195221,327.136353 
	C328.071808,339.395813 319.744598,349.634491 306.761353,348.437439 
	C308.096436,345.750031 309.583984,343.324005 311.395142,340.811279 
	C316.120483,334.483368 316.521942,330.021271 312.946228,324.574951 
	C312.589996,330.834778 312.262665,336.885284 306.462891,340.849792 
	C306.269836,340.917633 306.059570,341.268646 305.712585,341.395386 
	C303.917938,341.793304 302.470245,342.064453 300.702850,342.288818 
	C299.957550,342.295868 299.532013,342.349670 298.710571,342.307404 
	C294.186554,342.181061 291.305176,340.215149 290.048035,336.333008 
	C288.833557,332.582672 287.954498,328.721832 286.978180,324.896698 
	C284.950531,316.952484 282.956024,308.999756 280.802612,300.749725 
	C277.730408,298.015076 274.868866,295.496796 271.860260,293.168549 
	C267.980347,290.165924 263.982758,287.315338 259.805817,284.125244 
	C256.362732,281.223694 253.149658,278.596161 249.794098,275.680481 
	C248.288666,274.077667 246.925735,272.763031 245.550629,271.447845 
	C245.538452,271.447296 245.516464,271.437042 245.353424,271.165161 
	C243.830658,269.880859 242.470963,268.868439 241.091553,267.897461 
	C241.071838,267.938934 241.157684,267.906281 241.056076,267.656128 
	C240.646255,267.241699 240.338058,267.077454 240.024231,266.948181 
	C240.018600,266.983185 240.079514,266.946960 239.940292,266.673004 
	C238.971710,265.823853 238.142349,265.248657 237.147034,264.769714 
	C236.981094,264.865906 237.320496,264.691162 237.188690,264.422180 
	C236.407837,263.715424 235.758759,263.277679 235.080215,262.890137 
	C235.050751,262.940338 235.148636,262.877319 235.035522,262.609161 
	C234.424530,262.051666 233.926651,261.762299 233.288757,261.505035 
	C233.148743,261.537109 233.414566,261.428162 233.288742,261.170898 
	C232.539352,260.507996 231.915787,260.102386 231.246002,259.753052 
	C231.199753,259.809296 231.334290,259.753510 231.197556,259.460236 
	C229.695648,258.125275 228.330460,257.083557 226.981567,256.020203 
	C226.997864,255.998550 226.957306,256.035980 226.833313,255.787079 
	C226.254059,255.248260 225.798798,254.958344 225.303009,254.688782 
	C225.262482,254.709167 225.290222,254.622803 225.186951,254.393509 
	C224.790741,254.017822 224.497803,253.871429 224.137299,253.858551 
	C224.069748,253.992065 224.225372,253.735794 224.069275,253.474258 
	C222.937607,252.503586 221.962051,251.794449 220.983124,251.048615 
	C220.979782,251.011932 220.906616,251.020584 220.784332,250.763153 
	C220.186844,250.210876 219.711639,249.916061 219.226791,249.688202 
	C219.217148,249.755173 219.352142,249.745605 219.205719,249.456665 
	C217.281204,248.406586 215.938736,244.007355 213.524261,248.535095 
	C213.517670,248.564453 213.564102,248.602722 213.339783,248.762039 
	C213.019333,249.266022 212.923203,249.610687 212.725983,250.018738 
	C212.624863,250.082108 212.651794,250.319260 212.401413,250.567383 
	C211.429565,252.529556 210.708099,254.243591 209.868103,256.065308 
	C209.749557,256.172943 209.729233,256.492523 209.469177,256.734192 
	C208.368210,258.931213 207.527313,260.886505 206.730621,262.845581 
	C206.774811,262.849365 206.742035,262.766907 206.476654,262.981201 
	C205.393250,265.099396 204.575211,267.003296 203.801819,268.895966 
	C203.846481,268.884705 203.808212,268.800903 203.562454,268.990021 
	C202.883591,270.084991 202.450485,270.990875 201.879883,272.255768 
	C201.149796,275.022522 200.557175,277.430267 199.964554,279.837982 
M161.488586,236.197327 
	C161.142029,236.606918 160.795471,237.016510 159.975403,237.739120 
	C159.527695,238.322601 159.079987,238.906067 158.518600,239.543274 
	C158.518600,239.543274 158.515823,239.668991 157.999619,239.983078 
	C157.270493,241.210510 156.541382,242.437927 155.167648,244.101654 
	C154.056076,248.116455 152.168594,252.106216 152.037979,256.152679 
	C151.889465,260.753418 153.310867,265.404877 154.119537,270.715271 
	C155.160583,272.219055 155.914734,274.101715 157.300140,275.150665 
	C160.566635,277.623962 164.133926,279.699951 168.429764,282.108276 
	C169.792511,282.347900 171.155273,282.587555 173.122299,282.999237 
	C174.775345,281.271088 176.845551,279.785248 178.013275,277.775146 
	C185.201950,265.400635 192.149857,252.886429 199.286728,240.481354 
	C200.173325,238.940277 201.703217,237.769287 203.038895,236.313614 
	C197.990479,232.765366 193.529480,227.320724 185.311691,227.468384 
	C184.548309,227.515503 183.784912,227.562637 182.240005,227.400101 
	C175.251190,227.754730 168.945450,229.908630 163.052902,234.728088 
	C162.699493,235.149399 162.346069,235.570709 161.488586,236.197327 
M220.972107,234.333557 
	C221.567825,235.660522 221.801575,237.446289 222.814011,238.245071 
	C236.186935,248.796082 249.645081,259.239838 263.143097,269.630951 
	C266.194916,271.980286 269.480774,274.025574 272.658905,276.210815 
	C273.207489,275.900970 273.756073,275.591125 274.304657,275.281281 
	C272.953094,270.892639 271.601532,266.503967 270.157501,261.284119 
	C263.655304,231.388168 257.153137,201.492233 250.650940,171.596283 
	C250.206970,171.584732 249.763016,171.573181 249.319046,171.561630 
	C245.213699,180.769791 241.092133,189.970779 237.007095,199.187943 
	C231.834641,210.858673 226.691879,222.542572 220.972107,234.333557 
M315.684021,284.128662 
	C317.078430,280.792389 319.182495,277.565857 319.718933,274.096893 
	C320.822571,266.960602 317.816315,261.120361 312.203705,256.646149 
	C307.706635,253.061188 302.789459,253.735916 296.980194,254.838043 
	C301.373352,266.453156 305.507599,277.383698 309.927917,289.070587 
	C312.227600,287.171814 313.721283,285.938538 315.684021,284.128662 
z"/>
<path fill="#2E3094" opacity="1.000000" stroke="none" 
	d="
M255.958832,370.003998 
	C240.983749,370.002563 226.479279,370.513428 212.026230,369.869751 
	C193.824799,369.059113 175.663040,367.334503 157.493729,365.884369 
	C156.411850,365.798004 155.414810,364.648712 154.378296,363.994019 
	C155.166702,363.080536 155.789749,361.678345 156.774506,361.345093 
	C159.739410,360.341736 162.831924,359.164001 165.897980,359.095276 
	C201.951614,358.287354 238.007584,357.467957 274.067444,357.124756 
	C284.981171,357.020874 295.931000,358.145508 306.815979,359.204315 
	C309.959412,359.510101 312.934570,361.545807 315.785034,363.786133 
	C296.109161,368.969147 276.223724,368.930298 255.958832,370.003998 
z"/>
<path fill="#1D1E3B" opacity="1.000000" stroke="none" 
	d="
M257.648438,151.207550 
	C257.578430,151.510986 257.376160,151.614029 257.256134,151.553619 
	C251.156128,148.483566 251.180252,148.495224 247.540390,154.943893 
	C235.221832,176.768387 222.886047,198.583160 210.552841,220.399384 
	C209.981689,221.409698 209.592514,222.699402 208.731247,223.329971 
	C207.246826,224.416840 205.451447,225.098282 206.144318,221.615692 
	C209.785172,215.341034 213.397949,209.378937 216.825424,203.312164 
	C226.398239,186.367783 235.919159,169.393936 245.408340,152.402527 
	C249.140076,145.720459 252.133469,145.312744 257.648438,151.207550 
z"/>
<path fill="#111B3D" opacity="1.000000" stroke="none" 
	d="
M319.267426,301.682251 
	C320.744415,299.210327 322.240997,296.765198 324.063568,294.593658 
	C330.773407,286.599335 331.712952,277.681763 328.703979,268.006744 
	C327.194427,263.152893 328.212280,261.681793 333.415619,261.505951 
	C339.943085,274.220306 334.184082,294.863068 319.267426,301.682251 
z"/>
<path fill="#B7BCE7" opacity="1.000000" stroke="none" 
	d="
M379.002960,301.001709 
	C374.971771,311.809021 371.436707,322.838440 366.733612,333.345001 
	C363.639771,340.256531 358.861816,346.414185 354.838013,352.909454 
	C354.404968,352.645355 353.971924,352.381226 353.538849,352.117126 
	C354.019989,351.191833 354.394165,350.189270 354.998291,349.352814 
	C364.803864,335.775787 371.886871,320.874817 376.793762,304.894257 
	C377.157684,303.709106 377.996216,302.669708 378.801971,301.283447 
	C378.989838,301.004333 379.002960,301.001709 379.002960,301.001709 
z"/>
<path fill="#0B1A49" opacity="1.000000" stroke="none" 
	d="
M200.308807,279.823730 
	C200.557175,277.430267 201.149796,275.022522 202.211105,272.174133 
	C203.055939,270.755951 203.432083,269.778442 203.808228,268.800903 
	C203.808212,268.800903 203.846481,268.884705 204.135010,268.755432 
	C205.196381,266.673065 205.969208,264.719971 206.742035,262.766907 
	C206.742035,262.766907 206.774811,262.849365 207.085495,262.729187 
	C208.173859,260.570190 208.951538,258.531372 209.729233,256.492523 
	C209.729233,256.492523 209.749557,256.172943 210.195526,255.904785 
	C211.311584,253.864166 211.981689,252.091705 212.651794,250.319260 
	C212.651794,250.319260 212.624863,250.082108 212.954163,249.863647 
	C213.376999,249.297684 213.470551,248.950195 213.564087,248.602722 
	C213.564102,248.602722 213.517670,248.564453 213.938934,248.655273 
	C216.024170,249.079269 217.688156,249.412430 219.352142,249.745605 
	C219.352142,249.745605 219.217148,249.755173 219.310989,249.976654 
	C219.905426,250.472290 220.406021,250.746445 220.906616,251.020584 
	C220.906616,251.020584 220.979782,251.011932 221.045212,251.380478 
	C222.148880,252.411285 223.187119,253.073547 224.225372,253.735794 
	C224.225372,253.735794 224.069748,253.992065 224.235138,254.095093 
	C224.697098,254.339676 224.993652,254.481247 225.290222,254.622803 
	C225.290222,254.622803 225.262482,254.709167 225.373474,254.969376 
	C225.975433,255.498383 226.466370,255.767181 226.957306,256.035980 
	C226.957306,256.035980 226.997864,255.998550 227.035507,256.355560 
	C228.493530,257.726227 229.913910,258.739868 231.334290,259.753510 
	C231.334290,259.753510 231.199753,259.809296 231.181152,260.107819 
	C231.150818,260.883942 231.139069,261.361572 231.034714,261.946045 
	C230.942123,262.052917 230.757736,262.267365 230.757736,262.267365 
	C225.998032,258.802795 221.238342,255.338211 215.714310,251.317276 
	C213.188797,256.350281 210.929916,261.049896 208.492340,265.654938 
	C205.969574,270.420929 203.273407,275.095123 200.308807,279.823730 
z"/>
<path fill="#B7BCE7" opacity="1.000000" stroke="none" 
	d="
M161.233978,391.744720 
	C152.563248,385.702423 144.200516,379.859375 135.837784,374.016327 
	C136.007034,373.798767 136.176285,373.581177 136.345520,373.363617 
	C151.220612,382.680145 166.095703,391.996674 180.970779,401.313202 
	C180.972900,401.418213 180.975021,401.523224 180.977142,401.628265 
	C174.498749,398.400146 168.020340,395.172058 161.233978,391.744720 
z"/>
<path fill="#25202E" opacity="1.000000" stroke="none" 
	d="
M162.152191,298.578979 
	C163.311005,298.219604 164.423172,298.219604 166.454910,298.219604 
	C162.482407,305.388000 158.837540,311.923584 155.234665,318.482208 
	C153.072647,322.417908 152.510117,326.268707 155.873398,330.247437 
	C155.054596,330.852264 154.480652,330.981903 153.906723,331.111572 
	C153.906723,331.111572 153.902100,331.052490 153.775848,330.816589 
	C153.322433,330.399994 152.995270,330.219299 152.668106,330.038605 
	C152.440079,329.626251 152.212036,329.213928 151.990051,328.117096 
	C151.723343,325.268188 151.450577,323.103729 151.177811,320.939301 
	C151.281494,320.431122 151.385178,319.922943 151.905014,319.032043 
	C152.542496,318.085388 152.763840,317.521423 152.985199,316.957458 
	C152.985199,316.957458 153.009689,317.000977 153.216644,316.825073 
	C153.586273,316.297668 153.748947,315.946106 153.911621,315.594574 
	C156.642929,310.042511 159.374237,304.490417 162.152191,298.578979 
z"/>
<path fill="#091846" opacity="1.000000" stroke="none" 
	d="
M311.071564,340.898010 
	C309.583984,343.324005 308.096436,345.750031 306.338196,348.350464 
	C299.388184,348.088043 293.065247,346.840424 288.817780,340.520813 
	C288.843750,340.111115 289.114990,339.959259 289.402374,340.137756 
	C292.657562,341.783936 295.144073,345.422974 299.106445,342.403473 
	C299.532013,342.349670 299.957550,342.295868 300.990173,342.464050 
	C303.084656,342.213531 304.572113,341.741089 306.059570,341.268616 
	C306.059570,341.268646 306.269836,340.917633 306.776978,340.885223 
	C308.546570,340.867889 309.809082,340.882965 311.071564,340.898010 
z"/>
<path fill="#B7BDE9" opacity="1.000000" stroke="none" 
	d="
M292.076965,399.259796 
	C305.248413,391.873230 318.419861,384.486694 330.915863,377.478943 
	C320.397430,386.725800 307.729401,394.172546 293.495056,400.021362 
	C292.629730,399.718964 292.353363,399.489380 292.076965,399.259796 
z"/>
<path fill="#1C1E39" opacity="1.000000" stroke="none" 
	d="
M260.035828,284.399292 
	C263.982758,287.315338 267.980347,290.165924 271.860260,293.168549 
	C274.868866,295.496796 277.730408,298.015076 280.692993,300.977295 
	C280.519409,301.959778 280.310089,302.413940 279.827942,302.878418 
	C279.373047,302.892975 279.191040,302.897186 279.009033,302.901428 
	C272.819580,297.769196 266.630157,292.636993 260.238464,286.918304 
	C260.036102,285.687653 260.035950,285.043488 260.035828,284.399292 
z"/>
<path fill="#BABFE7" opacity="1.000000" stroke="none" 
	d="
M114.560654,348.444550 
	C106.308800,337.412781 100.473404,325.179840 96.228638,312.174530 
	C102.548592,323.763367 108.868546,335.352234 115.107925,347.467957 
	C114.871788,348.144745 114.716225,348.294647 114.560654,348.444550 
z"/>
<path fill="#0A1B57" opacity="1.000000" stroke="none" 
	d="
M279.032532,303.309875 
	C279.191040,302.897186 279.373047,302.892975 280.033234,303.206238 
	C283.379272,315.668884 286.247131,327.814087 289.114990,339.959259 
	C289.114990,339.959259 288.843750,340.111115 288.703430,340.184265 
	C287.477417,338.138275 285.901855,336.130493 285.390289,333.880768 
	C283.112610,323.864441 281.139313,313.778839 279.032532,303.309875 
z"/>
<path fill="#9CA2D0" opacity="1.000000" stroke="none" 
	d="
M247.078781,411.507935 
	C238.091293,412.363159 229.125061,412.817261 220.292343,410.750854 
	C220.314789,410.288849 220.337250,409.826874 220.359711,409.364868 
	C228.998764,409.965698 237.637817,410.566498 246.688324,411.329987 
	C247.099777,411.492645 247.078781,411.507935 247.078781,411.507935 
z"/>
<path fill="#ACB2E2" opacity="1.000000" stroke="none" 
	d="
M247.491882,411.531128 
	C247.078781,411.507935 247.099777,411.492645 247.097488,411.482819 
	C253.563217,409.881256 260.031250,408.289551 266.499268,406.697815 
	C266.632751,407.443451 266.766266,408.189117 266.899750,408.934753 
	C260.568176,409.807922 254.236572,410.681091 247.491882,411.531128 
z"/>
<path fill="#BFC5E9" opacity="1.000000" stroke="none" 
	d="
M382.842377,264.025330 
	C382.843536,260.982300 382.843536,258.368652 382.843536,255.755005 
	C383.108551,255.753632 383.373535,255.752258 383.638550,255.750885 
	C383.638550,263.368347 383.638550,270.985779 383.638550,278.603241 
	C383.150146,278.609863 382.661743,278.616486 382.173340,278.623108 
	C382.395966,273.900299 382.618591,269.177490 382.842377,264.025330 
z"/>
<path fill="#B7BCE7" opacity="1.000000" stroke="none" 
	d="
M112.629463,181.113770 
	C113.893028,181.546982 114.799423,181.861160 115.439079,182.082870 
	C114.629333,183.749481 113.855072,185.343048 112.868568,187.373474 
	C111.439812,186.977524 109.543701,186.452072 105.820061,185.420166 
	C108.584686,183.523972 110.428497,182.259338 112.629463,181.113770 
z"/>
<path fill="#08184C" opacity="1.000000" stroke="none" 
	d="
M153.933441,331.457642 
	C154.480652,330.981903 155.054596,330.852264 156.044434,330.573975 
	C156.460327,330.425293 156.436386,330.445770 156.480667,330.770569 
	C157.049210,331.370483 157.573456,331.645630 158.097717,331.920746 
	C158.097717,331.920746 158.013901,331.992096 158.073486,332.319641 
	C159.638718,333.722595 161.108429,335.639282 162.657166,335.705414 
	C166.344009,335.862762 170.068192,335.145386 173.852783,334.855530 
	C173.928268,334.929688 174.079361,335.077850 174.079361,335.077850 
	C169.098755,340.153625 157.100449,338.806763 153.933441,331.457642 
z"/>
<path fill="#B3B8E7" opacity="1.000000" stroke="none" 
	d="
M115.265648,347.775299 
	C119.236504,352.307129 122.969070,357.058502 126.701637,361.809906 
	C126.296349,362.153839 125.891068,362.497803 125.485786,362.841736 
	C121.930351,358.250854 118.374924,353.659943 114.690071,348.756775 
	C114.716225,348.294647 114.871788,348.144745 115.265648,347.775299 
z"/>
<path fill="#0A1A4F" opacity="1.000000" stroke="none" 
	d="
M259.805817,284.125244 
	C260.035950,285.043488 260.036102,285.687653 260.038269,286.655548 
	C255.963196,283.587616 251.886108,280.195984 248.070648,276.435608 
	C248.867050,276.034149 249.401810,276.001373 249.936584,275.968628 
	C253.149658,278.596161 256.362732,281.223694 259.805817,284.125244 
z"/>
<path fill="#B7BDE9" opacity="1.000000" stroke="none" 
	d="
M343.660156,365.703674 
	C339.787445,369.422180 336.153412,372.891571 332.519409,376.360962 
	C332.459717,376.287201 332.400024,376.213409 332.340332,376.139648 
	C336.412933,371.872070 340.485565,367.604523 344.558197,363.336945 
	C344.687775,363.411652 344.817383,363.486359 344.946991,363.561066 
	C344.597595,364.192200 344.248230,364.823364 343.660156,365.703674 
z"/>
<path fill="#AEB6E4" opacity="1.000000" stroke="none" 
	d="
M291.723267,399.345001 
	C292.353363,399.489380 292.629730,399.718964 293.145203,400.077087 
	C287.847717,402.070068 282.311188,403.934509 276.380707,405.890015 
	C275.986755,405.981110 275.955322,405.990570 275.955322,405.990570 
	C281.093384,403.803802 286.231476,401.617004 291.723267,399.345001 
z"/>
<path fill="#AEB6E4" opacity="1.000000" stroke="none" 
	d="
M89.684891,274.934692 
	C90.282539,279.781311 90.880180,284.627930 91.477821,289.474548 
	C90.974831,289.551788 90.471832,289.628998 89.968842,289.706238 
	C89.353447,285.072205 88.738052,280.438202 88.422821,275.361420 
	C88.722984,274.918671 89.204277,274.906464 89.204277,274.906464 
	C89.204277,274.906464 89.684891,274.934692 89.684891,274.934692 
z"/>
<path fill="#08184C" opacity="1.000000" stroke="none" 
	d="
M173.822739,332.702087 
	C174.632233,330.461884 175.441727,328.221680 176.648758,324.881317 
	C177.857147,326.856689 178.303513,327.586334 178.929443,328.593384 
	C177.649231,330.876465 176.189468,332.882202 174.404526,334.982910 
	C174.079361,335.077850 173.928268,334.929688 173.897232,334.512268 
	C173.851715,333.630615 173.837234,333.166351 173.822739,332.702087 
z"/>
<path fill="#CACFF6" opacity="1.000000" stroke="none" 
	d="
M89.707848,274.524597 
	C89.684891,274.934692 89.204277,274.906464 89.204277,274.906464 
	C89.204277,274.906464 88.722984,274.918671 88.482925,274.936157 
	C88.267036,267.520569 88.291214,260.087463 88.722343,252.594101 
	C89.254295,252.748337 89.430565,252.905304 89.658096,253.004730 
	C89.641792,253.489716 89.625481,253.974716 89.363579,255.094421 
	C89.136971,256.582397 89.155960,257.435608 89.174950,258.288849 
	C89.208809,261.796661 89.242668,265.304474 89.187042,269.446564 
	C89.074043,270.363525 89.137352,270.625153 89.287476,270.865753 
	C89.435257,271.948669 89.583031,273.031555 89.707848,274.524597 
z"/>
<path fill="#7E81CC" opacity="1.000000" stroke="none" 
	d="
M366.054474,192.059891 
	C366.357758,192.189438 366.661041,192.318985 366.964325,192.448517 
	C366.278931,193.069031 365.362762,194.339294 364.949829,194.192642 
	C363.502777,193.678741 362.229126,192.676575 360.889648,191.859818 
	C361.440613,191.228363 361.991577,190.596909 362.866974,190.321655 
	C364.145752,191.138535 365.100128,191.599213 366.054474,192.059891 
z"/>
<path fill="#2C212F" opacity="1.000000" stroke="none" 
	d="
M249.794098,275.680481 
	C249.401810,276.001373 248.867050,276.034149 247.926422,276.117371 
	C246.878433,275.822510 246.236298,275.477234 245.366577,274.535583 
	C245.280258,273.108978 245.421539,272.278687 245.562805,271.448395 
	C246.925735,272.763031 248.288666,274.077667 249.794098,275.680481 
z"/>
<path fill="#0A1A4F" opacity="1.000000" stroke="none" 
	d="
M236.632751,267.328461 
	C234.767197,265.836548 232.901642,264.344635 230.896912,262.560059 
	C230.757736,262.267365 230.942123,262.052917 231.423813,261.941162 
	C232.408524,261.695679 232.911545,261.561920 233.414566,261.428162 
	C233.414566,261.428162 233.148743,261.537109 233.344025,261.819366 
	C234.075745,262.360199 234.612198,262.618744 235.148636,262.877319 
	C235.148636,262.877319 235.050751,262.940338 235.126999,263.224731 
	C235.908997,263.903168 236.614746,264.297180 237.320496,264.691162 
	C237.320496,264.691162 236.981094,264.865906 237.073883,265.137817 
	C237.144867,265.906769 237.123062,266.403839 236.984589,267.008301 
	C236.867920,267.115692 236.632751,267.328461 236.632751,267.328461 
z"/>
<path fill="#0A1A4F" opacity="1.000000" stroke="none" 
	d="
M240.901001,271.112244 
	C239.583252,270.038147 238.265488,268.964081 236.790253,267.609222 
	C236.632751,267.328461 236.867920,267.115692 237.354126,267.031860 
	C238.586716,266.947632 239.333115,266.947296 240.079514,266.946960 
	C240.079514,266.946960 240.018600,266.983185 240.144821,267.181610 
	C240.566589,267.555450 240.862137,267.730865 241.157684,267.906281 
	C241.157684,267.906281 241.071838,267.938934 241.066162,268.273987 
	C241.087601,269.358887 241.114700,270.108765 241.081299,270.921753 
	C241.020798,270.984894 240.901001,271.112244 240.901001,271.112244 
z"/>
<path fill="#08184C" opacity="1.000000" stroke="none" 
	d="
M151.004669,321.270081 
	C151.450577,323.103729 151.723343,325.268188 151.965546,327.879089 
	C151.567169,326.083984 151.199341,323.842438 151.004669,321.270081 
z"/>
<path fill="#0A1A4F" opacity="1.000000" stroke="none" 
	d="
M245.550629,271.447845 
	C245.421539,272.278687 245.280258,273.108978 245.145370,274.359192 
	C243.855515,273.728424 242.559296,272.677704 241.082031,271.369629 
	C240.901001,271.112244 241.020798,270.984894 241.442810,270.961609 
	C243.082047,271.104553 244.299255,271.270813 245.516464,271.437042 
	C245.516464,271.437042 245.538452,271.447296 245.550629,271.447845 
z"/>
<path fill="#2E3094" opacity="1.000000" stroke="none" 
	d="
M365.965240,191.739380 
	C365.100128,191.599213 364.145752,191.138535 363.193909,190.315857 
	C364.089630,190.442184 364.982819,190.930511 365.965240,191.739380 
z"/>
<path fill="#AEB6E4" opacity="1.000000" stroke="none" 
	d="
M89.307495,257.991913 
	C89.155960,257.435608 89.136971,256.582397 89.259865,255.445038 
	C89.414505,256.005585 89.427269,256.850281 89.307495,257.991913 
z"/>
<path fill="#B7BCE7" opacity="1.000000" stroke="none" 
	d="
M352.161255,355.246338 
	C352.130280,355.267609 352.239990,355.093781 352.239990,355.093781 
	C352.239990,355.093781 352.192261,355.225037 352.161255,355.246338 
z"/>
<path fill="#08184C" opacity="1.000000" stroke="none" 
	d="
M152.747467,317.147369 
	C152.763840,317.521423 152.542496,318.085388 152.056854,318.818695 
	C152.031616,318.437775 152.270676,317.887543 152.747467,317.147369 
z"/>
<path fill="#AEB6E4" opacity="1.000000" stroke="none" 
	d="
M89.704330,252.774506 
	C89.430565,252.905304 89.254295,252.748337 89.067383,252.366379 
	C89.380379,252.041046 89.628746,252.156158 89.704330,252.774506 
z"/>
<path fill="#AEB6E4" opacity="1.000000" stroke="none" 
	d="
M275.989532,405.974182 
	C275.992310,405.967224 275.812195,406.084625 275.812195,406.084625 
	C275.812195,406.084625 276.039703,406.100769 275.997498,406.045654 
	C275.955322,405.990570 275.986755,405.981110 275.989532,405.974182 
z"/>
<path fill="#ACB2E2" opacity="1.000000" stroke="none" 
	d="
M268.509277,406.542236 
	C268.533112,406.524017 268.485474,406.560455 268.509277,406.542236 
z"/>
<path fill="#08184C" opacity="1.000000" stroke="none" 
	d="
M152.822678,330.281342 
	C152.995270,330.219299 153.322433,330.399994 153.805466,330.815918 
	C153.633316,330.875458 153.305283,330.699768 152.822678,330.281342 
z"/>
<path fill="#08184C" opacity="1.000000" stroke="none" 
	d="
M153.693634,315.787506 
	C153.748947,315.946106 153.586273,316.297668 153.191727,316.826630 
	C153.131775,316.662842 153.303711,316.321655 153.693634,315.787506 
z"/>
<path fill="#B7BCE7" opacity="1.000000" stroke="none" 
	d="
M378.994751,300.990112 
	C378.999695,300.975891 379.184540,300.914612 379.184540,300.914612 
	C379.184540,300.914612 378.954163,300.866699 378.978577,300.934204 
	C379.002960,301.001709 378.989838,301.004333 378.994751,300.990112 
z"/>
<path fill="#AEB6E4" opacity="1.000000" stroke="none" 
	d="
M89.378693,270.671692 
	C89.137352,270.625153 89.074043,270.363525 89.149002,269.881500 
	C89.407608,269.907623 89.497429,270.172791 89.378693,270.671692 
z"/>
<path fill="#3738A4" opacity="1.000000" stroke="none" 
	d="
M221.536301,234.220779 
	C226.691879,222.542572 231.834641,210.858673 237.007095,199.187943 
	C241.092133,189.970779 245.213699,180.769791 249.319046,171.561630 
	C249.763016,171.573181 250.206970,171.584732 250.650940,171.596283 
	C257.153137,201.492233 263.655304,231.388168 270.167358,262.085449 
	C270.382385,265.304474 270.587585,267.722229 270.913055,271.556915 
	C264.242035,266.504211 258.520844,262.163940 252.792252,257.833527 
	C242.375931,249.959534 231.955200,242.091370 221.536301,234.220779 
z"/>
<path fill="#3337A6" opacity="1.000000" stroke="none" 
	d="
M172.518005,282.827179 
	C171.155273,282.587555 169.792511,282.347900 168.015839,281.701813 
	C164.114609,277.888672 160.627304,274.482025 157.100220,270.669556 
	C154.683578,263.902374 154.296814,257.417145 156.486176,250.986557 
	C157.741379,247.299820 159.602600,243.819397 161.193909,240.205307 
	C161.196808,240.164520 161.139099,240.106583 161.479034,240.086456 
	C163.863556,238.380493 165.908142,236.694641 167.978149,235.014404 
	C168.003571,235.020004 168.013794,234.968582 168.379303,234.910873 
	C176.927444,230.856110 185.348358,230.069550 194.325043,233.155334 
	C195.738083,234.191971 196.869415,235.048828 198.216293,236.068939 
	C193.844315,243.736481 189.577789,251.000153 185.526962,258.382172 
	C181.086884,266.473541 176.845810,274.674164 172.518005,282.827179 
z"/>
<path fill="#3D399E" opacity="1.000000" stroke="none" 
	d="
M315.449524,284.416931 
	C313.721283,285.938538 312.227600,287.171814 309.927917,289.070587 
	C305.507599,277.383698 301.373352,266.453156 296.980194,254.838043 
	C302.789459,253.735916 307.706635,253.061188 312.203705,256.646149 
	C317.816315,261.120361 320.822571,266.960602 319.718933,274.096893 
	C319.182495,277.565857 317.078430,280.792389 315.449524,284.416931 
z"/>
<path fill="#1B1E37" opacity="1.000000" stroke="none" 
	d="
M221.254211,234.277161 
	C231.955200,242.091370 242.375931,249.959534 252.792252,257.833527 
	C258.520844,262.163940 264.242035,266.504211 270.913055,271.556915 
	C270.587585,267.722229 270.382385,265.304474 270.213593,262.501038 
	C271.601532,266.503967 272.953094,270.892639 274.304657,275.281281 
	C273.756073,275.591125 273.207489,275.900970 272.658905,276.210815 
	C269.480774,274.025574 266.194916,271.980286 263.143097,269.630951 
	C249.645081,259.239838 236.186935,248.796082 222.814011,238.245071 
	C221.801575,237.446289 221.567825,235.660522 221.254211,234.277161 
z"/>
<path fill="#1C1E39" opacity="1.000000" stroke="none" 
	d="
M172.820160,282.913208 
	C176.845810,274.674164 181.086884,266.473541 185.526962,258.382172 
	C189.577789,251.000153 193.844315,243.736481 198.216293,236.068939 
	C196.869415,235.048828 195.738083,234.191971 194.240326,232.803391 
	C191.259842,230.765900 188.645752,229.260147 186.031677,227.754379 
	C193.529480,227.320724 197.990479,232.765366 203.038895,236.313614 
	C201.703217,237.769287 200.173325,238.940277 199.286728,240.481354 
	C192.149857,252.886429 185.201950,265.400635 178.013275,277.775146 
	C176.845551,279.785248 174.775345,281.271088 172.820160,282.913208 
z"/>
<path fill="#131B41" opacity="1.000000" stroke="none" 
	d="
M161.190994,240.246094 
	C159.602600,243.819397 157.741379,247.299820 156.486176,250.986557 
	C154.296814,257.417145 154.683578,263.902374 156.795502,270.537170 
	C155.703659,270.551819 154.876755,270.293060 154.049850,270.034302 
	C153.310867,265.404877 151.889465,260.753418 152.037979,256.152679 
	C152.168594,252.106216 154.056076,248.116455 155.700897,244.105774 
	C156.994720,242.629578 157.755280,241.149292 158.515823,239.668991 
	C158.515823,239.668991 158.518600,239.543274 158.992126,239.673584 
	C160.040771,239.951294 160.615891,240.098694 161.190994,240.246094 
z"/>
<path fill="#26202A" opacity="1.000000" stroke="none" 
	d="
M289.402374,340.137756 
	C286.247131,327.814087 283.379272,315.668884 280.306091,303.195892 
	C280.310089,302.413940 280.519409,301.959778 280.838287,301.278076 
	C282.956024,308.999756 284.950531,316.952484 286.978180,324.896698 
	C287.954498,328.721832 288.833557,332.582672 290.048035,336.333008 
	C291.305176,340.215149 294.186554,342.181061 298.710571,342.307404 
	C295.144073,345.422974 292.657562,341.783936 289.402374,340.137756 
z"/>
<path fill="#131B41" opacity="1.000000" stroke="none" 
	d="
M185.671692,227.611389 
	C188.645752,229.260147 191.259842,230.765900 193.958618,232.623611 
	C185.348358,230.069550 176.927444,230.856110 168.461197,234.572693 
	C171.212509,232.865936 174.234482,231.411163 177.287125,230.023788 
	C179.174469,229.166031 181.108475,228.410934 183.021530,227.609741 
	C183.784912,227.562637 184.548309,227.515503 185.671692,227.611389 
z"/>
<path fill="#2E2027" opacity="1.000000" stroke="none" 
	d="
M311.395142,340.811310 
	C309.809082,340.882965 308.546570,340.867889 306.970001,340.817383 
	C312.262665,336.885284 312.589996,330.834778 312.946228,324.574951 
	C316.521942,330.021271 316.120483,334.483368 311.395142,340.811310 
z"/>
<path fill="#1C1E39" opacity="1.000000" stroke="none" 
	d="
M182.630768,227.504913 
	C181.108475,228.410934 179.174469,229.166031 177.287125,230.023788 
	C174.234482,231.411163 171.212509,232.865936 168.095688,234.630402 
	C168.013794,234.968582 168.003571,235.020004 167.586655,235.005737 
	C166.123581,235.011169 165.077423,235.030884 163.915421,234.909454 
	C163.799576,234.768295 163.561737,234.491180 163.561737,234.491180 
	C168.945450,229.908630 175.251190,227.754730 182.630768,227.504913 
z"/>
<path fill="#221F3B" opacity="1.000000" stroke="none" 
	d="
M154.084686,270.374786 
	C154.876755,270.293060 155.703659,270.551819 156.835297,270.942993 
	C160.627304,274.482025 164.114609,277.888672 167.590729,281.616028 
	C164.133926,279.699951 160.566635,277.623962 157.300140,275.150665 
	C155.914734,274.101715 155.160583,272.219055 154.084686,270.374786 
z"/>
<path fill="#25202E" opacity="1.000000" stroke="none" 
	d="
M173.442688,332.734375 
	C173.837234,333.166351 173.851715,333.630615 173.821747,334.438110 
	C170.068192,335.145386 166.344009,335.862762 162.657166,335.705414 
	C161.108429,335.639282 159.638718,333.722595 158.104675,332.274323 
	C162.895538,335.241547 167.889435,335.556885 173.442688,332.734375 
z"/>
<path fill="#2E2027" opacity="1.000000" stroke="none" 
	d="
M219.205719,249.456665 
	C217.688156,249.412430 216.024170,249.079269 213.945526,248.625916 
	C215.938736,244.007355 217.281204,248.406586 219.205719,249.456665 
z"/>
<path fill="#2C212F" opacity="1.000000" stroke="none" 
	d="
M245.353424,271.165161 
	C244.299255,271.270813 243.082047,271.104553 241.503326,270.898499 
	C241.114700,270.108765 241.087601,269.358887 241.085876,268.232483 
	C242.470963,268.868439 243.830658,269.880859 245.353424,271.165161 
z"/>
<path fill="#2E2027" opacity="1.000000" stroke="none" 
	d="
M206.476654,262.981201 
	C205.969208,264.719971 205.196381,266.673065 204.090363,268.766663 
	C204.575211,267.003296 205.393250,265.099396 206.476654,262.981201 
z"/>
<path fill="#1C1E39" opacity="1.000000" stroke="none" 
	d="
M158.257721,239.826035 
	C157.755280,241.149292 156.994720,242.629578 156.023209,243.887619 
	C156.541382,242.437927 157.270493,241.210510 158.257721,239.826035 
z"/>
<path fill="#2E2027" opacity="1.000000" stroke="none" 
	d="
M209.469177,256.734192 
	C208.951538,258.531372 208.173859,260.570190 207.041306,262.725433 
	C207.527313,260.886505 208.368210,258.931213 209.469177,256.734192 
z"/>
<path fill="#2E2027" opacity="1.000000" stroke="none" 
	d="
M212.401413,250.567383 
	C211.981689,252.091705 211.311584,253.864166 210.314056,255.797119 
	C210.708099,254.243591 211.429565,252.529556 212.401413,250.567383 
z"/>
<path fill="#26202A" opacity="1.000000" stroke="none" 
	d="
M305.712585,341.395386 
	C304.572113,341.741089 303.084656,342.213531 301.309875,342.510803 
	C302.470245,342.064453 303.917938,341.793304 305.712585,341.395386 
z"/>
<path fill="#2E2027" opacity="1.000000" stroke="none" 
	d="
M231.197556,259.460236 
	C229.913910,258.739868 228.493530,257.726227 227.019226,256.377228 
	C228.330460,257.083557 229.695648,258.125275 231.197556,259.460236 
z"/>
<path fill="#2E2027" opacity="1.000000" stroke="none" 
	d="
M203.562469,268.990021 
	C203.432083,269.778442 203.055939,270.755951 202.348572,271.815125 
	C202.450485,270.990875 202.883591,270.084991 203.562469,268.990021 
z"/>
<path fill="#2C212F" opacity="1.000000" stroke="none" 
	d="
M239.940292,266.673004 
	C239.333115,266.947296 238.586716,266.947632 237.470795,266.924438 
	C237.123062,266.403839 237.144867,265.906769 237.239807,265.041626 
	C238.142349,265.248657 238.971710,265.823853 239.940292,266.673004 
z"/>
<path fill="#2E2027" opacity="1.000000" stroke="none" 
	d="
M224.069275,253.474258 
	C223.187119,253.073547 222.148880,252.411285 221.048553,251.417175 
	C221.962051,251.794449 222.937607,252.503586 224.069275,253.474258 
z"/>
<path fill="#2C212F" opacity="1.000000" stroke="none" 
	d="
M233.288742,261.170898 
	C232.911545,261.561920 232.408524,261.695679 231.516403,261.834290 
	C231.139069,261.361572 231.150818,260.883942 231.227402,260.051575 
	C231.915787,260.102386 232.539352,260.507996 233.288742,261.170898 
z"/>
<path fill="#2C212F" opacity="1.000000" stroke="none" 
	d="
M237.188690,264.422180 
	C236.614746,264.297180 235.908997,263.903168 235.156464,263.174561 
	C235.758759,263.277679 236.407837,263.715424 237.188690,264.422180 
z"/>
<path fill="#1C1E39" opacity="1.000000" stroke="none" 
	d="
M161.193909,240.205307 
	C160.615891,240.098694 160.040771,239.951294 159.048981,239.646713 
	C159.079987,238.906067 159.527695,238.322601 160.360809,237.740753 
	C160.746231,237.742401 161.063354,238.038834 161.052155,238.383545 
	C161.073654,239.187698 161.106384,239.647141 161.139099,240.106583 
	C161.139099,240.106583 161.196808,240.164520 161.193909,240.205307 
z"/>
<path fill="#1C1E39" opacity="1.000000" stroke="none" 
	d="
M160.597565,237.584244 
	C160.795471,237.016510 161.142029,236.606918 161.788376,236.142517 
	C162.088165,236.087708 162.183899,236.183197 162.093643,236.443512 
	C161.690048,237.148819 161.376709,237.593826 161.063354,238.038834 
	C161.063354,238.038834 160.746231,237.742401 160.597565,237.584244 
z"/>
<path fill="#1C1E39" opacity="1.000000" stroke="none" 
	d="
M162.040405,236.039856 
	C162.346069,235.570709 162.699493,235.149399 163.307312,234.609634 
	C163.561737,234.491180 163.799576,234.768295 163.724274,235.107574 
	C163.160614,235.692291 162.672256,235.937744 162.183899,236.183197 
	C162.183899,236.183197 162.088165,236.087708 162.040405,236.039856 
z"/>
<path fill="#2E2027" opacity="1.000000" stroke="none" 
	d="
M220.784332,250.763153 
	C220.406021,250.746445 219.905426,250.472290 219.320633,249.909683 
	C219.711639,249.916061 220.186844,250.210876 220.784332,250.763153 
z"/>
<path fill="#25202E" opacity="1.000000" stroke="none" 
	d="
M157.998657,331.646606 
	C157.573456,331.645630 157.049210,331.370483 156.489105,330.778717 
	C156.935379,330.765564 157.417496,331.069031 157.998657,331.646606 
z"/>
<path fill="#2E2027" opacity="1.000000" stroke="none" 
	d="
M226.833313,255.787079 
	C226.466370,255.767181 225.975433,255.498383 225.414001,254.949005 
	C225.798798,254.958344 226.254059,255.248260 226.833313,255.787079 
z"/>
<path fill="#2C212F" opacity="1.000000" stroke="none" 
	d="
M235.035522,262.609161 
	C234.612198,262.618744 234.075745,262.360199 233.484039,261.787292 
	C233.926651,261.762299 234.424530,262.051666 235.035522,262.609161 
z"/>
<path fill="#2E2027" opacity="1.000000" stroke="none" 
	d="
M213.339767,248.762039 
	C213.470551,248.950195 213.376999,249.297684 213.055267,249.800262 
	C212.923203,249.610687 213.019333,249.266022 213.339767,248.762039 
z"/>
<path fill="#2E2027" opacity="1.000000" stroke="none" 
	d="
M225.186951,254.393509 
	C224.993652,254.481247 224.697098,254.339676 224.302704,253.961578 
	C224.497803,253.871429 224.790741,254.017822 225.186951,254.393509 
z"/>
<path fill="#2C212F" opacity="1.000000" stroke="none" 
	d="
M241.056076,267.656128 
	C240.862137,267.730865 240.566589,267.555450 240.150452,267.146606 
	C240.338058,267.077454 240.646255,267.241699 241.056076,267.656128 
z"/>
<path fill="#131B41" opacity="1.000000" stroke="none" 
	d="
M162.093643,236.443512 
	C162.672256,235.937744 163.160614,235.692291 163.840118,235.248718 
	C165.077423,235.030884 166.123581,235.011169 167.561234,235.000122 
	C165.908142,236.694641 163.863556,238.380493 161.479034,240.086456 
	C161.106384,239.647141 161.073654,239.187698 161.052155,238.383545 
	C161.376709,237.593826 161.690048,237.148819 162.093643,236.443512 
z"/>
</svg>